<?xml version="1.0" encoding="utf-8"?>
<!-- Generator: Adobe Illustrator 16.0.0, SVG Export Plug-In . SVG Version: 6.00 Build 0)  -->
<!DOCTYPE svg PUBLIC "-//W3C//DTD SVG 1.1//EN" "http://www.w3.org/Graphics/SVG/1.1/DTD/svg11.dtd">
<svg version="1.1" id="Layer_1" xmlns="http://www.w3.org/2000/svg" xmlns:xlink="http://www.w3.org/1999/xlink" x="0px" y="0px"
	 width="18.695px" height="24.393px" viewBox="0 0 18.695 24.393" enable-background="new 0 0 18.695 24.393" xml:space="preserve">
<g>
	<path d="M3.855,10.526c0.229,0.533,0.388,0.568,0.436,0.564c0.14-0.007,0.312-0.324,0.383-0.552l0.002-0.007
		C4.703,10.457,4.961,9.8,5.389,9.79c0.003,0,0.008,0,0.011,0c0.267,0,0.5,0.241,0.711,0.735c0.229,0.533,0.389,0.568,0.435,0.564
		c0.141-0.007,0.312-0.324,0.383-0.552l0.003-0.007c0.028-0.075,0.286-0.732,0.714-0.742c0.271-0.004,0.508,0.234,0.724,0.735
		c0.227,0.533,0.385,0.568,0.434,0.564c0.141-0.007,0.312-0.324,0.383-0.552l0.002-0.007c0.028-0.075,0.286-0.732,0.714-0.742
		c0.003,0,0.008,0,0.011,0c0.267,0,0.5,0.241,0.712,0.735c0.228,0.533,0.386,0.568,0.434,0.564c0.142-0.007,0.313-0.324,0.383-0.552
		l0.001-0.007c0.029-0.075,0.287-0.732,0.714-0.742c0.271-0.004,0.509,0.234,0.724,0.735c0.229,0.533,0.387,0.568,0.434,0.564
		c0.141-0.007,0.313-0.324,0.382-0.552l0.002-0.007c0.029-0.075,0.287-0.732,0.715-0.742c0.272-0.004,0.508,0.234,0.723,0.735
		c0.228,0.533,0.294,0.568,0.341,0.564c0.112-0.006,0.246-0.213,0.33-0.411V9.04h-1.457V6.917h-1.574v-1.16h-0.305v-2.69
		l-0.317-0.37c0,0-0.08-0.083-0.131,0.016c-0.135,0.093-0.315,0.354-0.315,0.354v2.69H9.73V2.032L9.415,1.663
		c0,0-0.08-0.083-0.133,0.015C9.147,1.77,8.966,2.032,8.966,2.032v3.725H6.923v-2.69l-0.316-0.37c0,0-0.08-0.083-0.131,0.016
		C6.34,2.804,6.16,3.066,6.16,3.066v2.69H5.864v1.159H4.291V9.04H2.74v0.956c0.105-0.114,0.238-0.202,0.393-0.205
		C3.404,9.787,3.64,10.025,3.855,10.526z"/>
	<path d="M15.8,11.213c-0.087,0.089-0.192,0.154-0.315,0.161c-0.004,0-0.01,0-0.018,0c-0.251,0-0.382-0.241-0.594-0.735
		c-0.154-0.36-0.319-0.565-0.454-0.565c-0.001,0-0.002,0-0.002,0c-0.188,0.004-0.388,0.375-0.457,0.556
		c-0.041,0.131-0.248,0.726-0.636,0.745c-0.007,0-0.014,0-0.021,0c-0.25,0-0.476-0.241-0.687-0.735
		c-0.154-0.36-0.319-0.565-0.454-0.565c-0.001,0-0.002,0-0.003,0c-0.188,0.004-0.388,0.375-0.455,0.556
		c-0.041,0.131-0.248,0.726-0.637,0.745c-0.007,0-0.013,0-0.021,0c-0.25,0-0.475-0.241-0.688-0.735
		c-0.153-0.36-0.318-0.565-0.453-0.565c-0.002,0-0.003,0-0.004,0c-0.188,0.004-0.387,0.375-0.455,0.556
		C9.407,10.76,9.2,11.354,8.813,11.374c-0.007,0-0.014,0-0.021,0c-0.25,0-0.477-0.241-0.688-0.735
		c-0.152-0.36-0.318-0.565-0.454-0.565c-0.001,0-0.002,0-0.002,0c-0.188,0.004-0.388,0.375-0.456,0.556
		c-0.041,0.131-0.248,0.726-0.636,0.745c-0.007,0-0.014,0-0.02,0c-0.251,0-0.477-0.241-0.688-0.735
		c-0.154-0.36-0.318-0.565-0.453-0.565c-0.001,0-0.002,0-0.004,0c-0.187,0.004-0.386,0.375-0.455,0.556
		C4.895,10.76,4.687,11.354,4.3,11.374c-0.006,0-0.014,0-0.021,0c-0.25,0-0.475-0.241-0.688-0.735
		c-0.154-0.36-0.319-0.565-0.454-0.565c0,0-0.001,0-0.003,0c-0.149,0.003-0.306,0.24-0.398,0.428v1.322H15.8V11.213z"/>
	<path d="M2.934,15.048c0.271,0.63,0.457,0.674,0.513,0.668c0.167-0.008,0.37-0.384,0.453-0.651l0.003-0.009
		c0.033-0.089,0.341-0.867,0.847-0.88c0.003,0,0.007,0,0.012,0c0.316,0,0.592,0.285,0.842,0.872c0.271,0.63,0.459,0.674,0.516,0.668
		c0.165-0.008,0.368-0.384,0.451-0.651l0.005-0.009c0.032-0.089,0.339-0.867,0.846-0.88c0.32-0.005,0.601,0.278,0.854,0.872
		c0.271,0.63,0.456,0.674,0.515,0.668c0.166-0.008,0.369-0.384,0.453-0.651l0.003-0.009c0.032-0.089,0.338-0.867,0.845-0.88
		c0.004,0,0.008,0,0.013,0c0.316,0,0.592,0.285,0.844,0.872c0.27,0.63,0.457,0.674,0.515,0.668c0.165-0.008,0.37-0.384,0.452-0.651
		l0.003-0.009c0.033-0.089,0.339-0.867,0.846-0.88c0.319-0.005,0.602,0.278,0.855,0.872c0.27,0.63,0.458,0.674,0.514,0.668
		c0.166-0.008,0.37-0.384,0.453-0.651l0.004-0.009c0.033-0.089,0.339-0.867,0.845-0.88c0.323-0.005,0.602,0.278,0.855,0.872
		c0.271,0.63,0.349,0.674,0.402,0.668c0.135-0.006,0.292-0.251,0.392-0.485v-1.943h-1.279v-1.274H2.74v1.274H1.614v1.132
		c0.127-0.135,0.282-0.237,0.466-0.243C2.4,14.171,2.68,14.454,2.934,15.048z"/>
	<path d="M16.685,16.051c-0.296,0-0.452-0.285-0.703-0.871c-0.182-0.427-0.377-0.67-0.537-0.67c-0.001,0-0.002,0-0.004,0
		c-0.221,0.006-0.457,0.444-0.539,0.659c-0.049,0.155-0.294,0.858-0.753,0.881c-0.007,0-0.016,0.001-0.022,0.001
		c-0.297,0-0.563-0.285-0.814-0.871c-0.183-0.427-0.378-0.67-0.538-0.67c-0.001,0-0.003,0-0.003,0
		c-0.223,0.006-0.459,0.444-0.54,0.659c-0.048,0.155-0.295,0.858-0.752,0.881c-0.008,0-0.017,0.001-0.023,0.001
		c-0.296,0-0.563-0.285-0.814-0.871c-0.182-0.427-0.377-0.67-0.537-0.67c-0.001,0-0.002,0-0.003,0
		c-0.223,0.006-0.458,0.444-0.539,0.659c-0.049,0.155-0.295,0.858-0.753,0.881c-0.009,0-0.016,0.001-0.023,0.001
		c-0.298,0-0.563-0.285-0.814-0.871c-0.182-0.427-0.377-0.67-0.537-0.67c-0.001,0-0.002,0-0.004,0
		c-0.221,0.006-0.458,0.444-0.539,0.659c-0.049,0.155-0.295,0.858-0.753,0.881c-0.008,0-0.016,0.001-0.024,0.001
		c-0.296,0-0.563-0.285-0.813-0.871c-0.183-0.427-0.378-0.67-0.537-0.67c-0.002,0-0.003,0-0.004,0
		c-0.222,0.006-0.458,0.444-0.539,0.659c-0.049,0.155-0.294,0.858-0.753,0.881c-0.008,0-0.016,0.001-0.025,0.001
		c-0.296,0-0.562-0.285-0.813-0.871c-0.184-0.427-0.378-0.67-0.538-0.67c-0.001,0-0.002,0-0.004,0
		c-0.177,0.005-0.363,0.285-0.472,0.508v1.565h15.468v-0.724c-0.104,0.105-0.229,0.183-0.374,0.189
		C16.7,16.05,16.693,16.051,16.685,16.051z"/>
	<path d="M1.596,20.443c0.327,0.762,0.554,0.813,0.622,0.809c0.201-0.011,0.447-0.465,0.547-0.79l0.004-0.011
		c0.04-0.107,0.41-1.047,1.021-1.062c0.005,0,0.01,0,0.015,0c0.383,0,0.716,0.345,1.02,1.054c0.325,0.762,0.554,0.813,0.62,0.809
		c0.201-0.011,0.447-0.465,0.548-0.79l0.004-0.011c0.04-0.107,0.408-1.047,1.021-1.062c0.387-0.007,0.727,0.335,1.034,1.053
		c0.326,0.762,0.551,0.813,0.621,0.809c0.201-0.011,0.447-0.465,0.547-0.79l0.004-0.011c0.041-0.107,0.41-1.047,1.022-1.062
		c0.004,0,0.01,0,0.015,0c0.382,0,0.714,0.345,1.019,1.054c0.326,0.762,0.554,0.813,0.621,0.809c0.2-0.011,0.447-0.465,0.549-0.79
		l0.003-0.011c0.041-0.107,0.408-1.047,1.021-1.062c0.386-0.007,0.728,0.335,1.033,1.053c0.327,0.762,0.554,0.813,0.622,0.809
		c0.2-0.011,0.447-0.465,0.547-0.79l0.003-0.011c0.041-0.107,0.41-1.047,1.022-1.062c0.391-0.007,0.727,0.335,1.033,1.053
		c0.326,0.762,0.423,0.813,0.487,0.809c0.161-0.009,0.353-0.304,0.473-0.588v-2.348h-1.612v-1.508H1.614v1.51H0v1.369
		c0.154-0.164,0.342-0.29,0.563-0.294C0.951,19.384,1.289,19.725,1.596,20.443z"/>
	<rect x="0" y="22.568" width="18.695" height="1.824"/>
	<path d="M18.245,21.654c-0.012,0.001-0.021,0.002-0.03,0.002c-0.358,0-0.546-0.345-0.85-1.054c-0.221-0.516-0.456-0.81-0.648-0.81
		c-0.002,0-0.003,0-0.004,0c-0.269,0.006-0.554,0.537-0.652,0.797c-0.059,0.188-0.355,1.037-0.91,1.064
		c-0.01,0.001-0.021,0.001-0.028,0.001c-0.359,0-0.682-0.345-0.984-1.054c-0.22-0.516-0.457-0.81-0.649-0.81
		c-0.002,0-0.003,0-0.005,0c-0.268,0.006-0.553,0.537-0.65,0.797c-0.06,0.188-0.356,1.037-0.91,1.064
		c-0.01,0.001-0.021,0.001-0.029,0.001c-0.358,0-0.681-0.345-0.983-1.054c-0.221-0.516-0.457-0.81-0.649-0.81
		c-0.002,0-0.003,0-0.004,0c-0.27,0.006-0.554,0.537-0.652,0.797c-0.059,0.188-0.354,1.037-0.91,1.064
		c-0.009,0.001-0.019,0.001-0.028,0.001c-0.359,0-0.682-0.345-0.984-1.054c-0.22-0.516-0.457-0.81-0.648-0.81
		c-0.003,0-0.004,0-0.006,0c-0.269,0.006-0.553,0.537-0.651,0.797c-0.059,0.188-0.355,1.037-0.91,1.064
		c-0.009,0.001-0.02,0.001-0.029,0.001c-0.358,0-0.681-0.345-0.983-1.054c-0.221-0.516-0.457-0.81-0.649-0.81
		c-0.001,0-0.002,0-0.004,0c-0.27,0.006-0.553,0.537-0.651,0.797c-0.059,0.188-0.355,1.037-0.91,1.064
		c-0.01,0.001-0.02,0.001-0.029,0.001c-0.358,0-0.681-0.345-0.983-1.054c-0.22-0.516-0.457-0.81-0.648-0.81
		c-0.001,0-0.002,0-0.005,0c-0.216,0.01-0.44,0.351-0.572,0.618V22.3h18.695v-0.875C18.571,21.552,18.422,21.646,18.245,21.654z"/>
	<path d="M6.402,2.664c0,0-0.169-0.289-0.008-0.5c0.14-0.139,0.187-0.157,0.308-0.089c0.125,0.07,0.149,0.242,0.092,0.419
		c0,0,0.264-0.277,0.226-0.555C6.956,1.488,6.435,1.188,6.276,1.034c0,0,0.056,0.33-0.114,0.616C6,1.862,5.99,1.957,6.007,2.083
		C6.024,2.21,6.135,2.555,6.402,2.664z"/>
	<path d="M9.208,1.629c0,0-0.168-0.288-0.007-0.5c0.14-0.138,0.187-0.155,0.308-0.089c0.125,0.071,0.15,0.242,0.092,0.42
		c0,0,0.265-0.276,0.227-0.555C9.763,0.454,9.242,0.154,9.083,0c0,0,0.056,0.331-0.115,0.616c-0.16,0.212-0.171,0.307-0.153,0.433
		C8.831,1.176,8.942,1.521,9.208,1.629z"/>
	<path d="M11.945,2.664c0,0-0.168-0.289-0.008-0.5c0.14-0.138,0.187-0.156,0.31-0.088c0.124,0.07,0.149,0.242,0.092,0.419
		c0,0,0.263-0.277,0.225-0.555C12.5,1.488,11.98,1.188,11.821,1.034c0,0,0.056,0.33-0.114,0.616
		c-0.161,0.212-0.171,0.307-0.154,0.433C11.569,2.21,11.679,2.555,11.945,2.664z"/>
</g>
</svg>
