<?xml version="1.0" encoding="utf-8"?>
<!-- Generator: Adobe Illustrator 18.0.0, SVG Export Plug-In . SVG Version: 6.00 Build 0)  -->
<!DOCTYPE svg PUBLIC "-//W3C//DTD SVG 1.1//EN" "http://www.w3.org/Graphics/SVG/1.1/DTD/svg11.dtd">
<svg version="1.1" id="Capa_1" xmlns="http://www.w3.org/2000/svg" xmlns:xlink="http://www.w3.org/1999/xlink" x="0px" y="0px"
	 viewBox="0 0 48 48" enable-background="new 0 0 48 48" xml:space="preserve">
<g id="Layer_1">
	<g>
		<path d="M44.4,17.2c-1.4,0-2.5,1.1-2.5,2.5V26h-36V14.7c0-1.4-1.1-2.5-2.6-2.5s-2.6,1.1-2.6,2.5V35c0,1.4,1.1,2.5,2.6,2.5
			s2.6-1.1,2.6-2.5v-2.9h36V35c0,1.4,1.1,2.5,2.5,2.5s2.5-1.1,2.5-2.5V19.7C46.9,18.3,45.8,17.2,44.4,17.2z"/>
		<circle cx="11.4" cy="20.5" r="3.6"/>
		<path d="M19.4,24.1h17.2c1.8,0,3.2-1.5,3.2-3.2c0-1.8-1.4-3.2-3.2-3.2H19.4c-1.8,0-3.2,1.5-3.2,3.2C16.2,22.6,17.7,24.1,19.4,24.1
			z"/>
	</g>
</g>
</svg>
